<svg width="139" height="139" viewBox="0 0 139 139" fill="none" xmlns="http://www.w3.org/2000/svg">
<rect width="139" height="139" rx="69.5" fill="#111827"/>
<g clip-path="url(#clip0_238_2)">
<path d="M69.5006 25.668C94.5843 25.668 114.917 45.0683 114.917 69.0013C114.923 75.5073 113.391 81.9307 110.434 87.7933C107.477 93.6559 103.173 98.8066 97.8406 102.862L96.7552 103.668H105.834C106.992 103.669 108.105 104.092 108.947 104.85C109.788 105.609 110.295 106.645 110.363 107.747C110.431 108.85 110.055 109.936 109.312 110.783C108.569 111.63 107.515 112.174 106.365 112.304L105.834 112.335H69.5006C44.417 112.335 24.084 92.9343 24.084 69.0013C24.084 45.0683 44.417 25.668 69.5006 25.668ZM69.5006 34.3346C59.8645 34.3346 50.6229 37.987 43.8091 44.4883C36.9953 50.9895 33.1673 59.8071 33.1673 69.0013C33.1673 78.1955 36.9953 87.0131 43.8091 93.5143C50.6229 100.016 59.8645 103.668 69.5006 103.668C79.1368 103.668 88.3784 100.016 95.1922 93.5143C102.006 87.0131 105.834 78.1955 105.834 69.0013C105.834 59.8071 102.006 50.9895 95.1922 44.4883C88.3784 37.987 79.1368 34.3346 69.5006 34.3346ZM69.5006 77.668C71.9097 77.668 74.2201 78.5811 75.9235 80.2064C77.627 81.8317 78.584 84.0361 78.584 86.3346C78.584 88.6332 77.627 90.8376 75.9235 92.4629C74.2201 94.0882 71.9097 95.0013 69.5006 95.0013C67.0916 95.0013 64.7812 94.0882 63.0778 92.4629C61.3743 90.8376 60.4173 88.6332 60.4173 86.3346C60.4173 84.0361 61.3743 81.8317 63.0778 80.2064C64.7812 78.5811 67.0916 77.668 69.5006 77.668ZM51.334 60.3346C53.743 60.3346 56.0534 61.2477 57.7569 62.873C59.4603 64.4984 60.4173 66.7028 60.4173 69.0013C60.4173 71.2998 59.4603 73.5042 57.7569 75.1296C56.0534 76.7549 53.743 77.668 51.334 77.668C48.9249 77.668 46.6146 76.7549 44.9111 75.1296C43.2076 73.5042 42.2507 71.2998 42.2507 69.0013C42.2507 66.7028 43.2076 64.4984 44.9111 62.873C46.6146 61.2477 48.9249 60.3346 51.334 60.3346ZM87.6673 60.3346C90.0764 60.3346 92.3867 61.2477 94.0902 62.873C95.7937 64.4984 96.7506 66.7028 96.7506 69.0013C96.7506 71.2998 95.7937 73.5042 94.0902 75.1296C92.3867 76.7549 90.0764 77.668 87.6673 77.668C85.2583 77.668 82.9479 76.7549 81.2444 75.1296C79.541 73.5042 78.584 71.2998 78.584 69.0013C78.584 66.7028 79.541 64.4984 81.2444 62.873C82.9479 61.2477 85.2583 60.3346 87.6673 60.3346ZM69.5006 43.0013C71.9097 43.0013 74.2201 43.9144 75.9235 45.5397C77.627 47.165 78.584 49.3694 78.584 51.668C78.584 53.9665 77.627 56.1709 75.9235 57.7962C74.2201 59.4215 71.9097 60.3346 69.5006 60.3346C67.0916 60.3346 64.7812 59.4215 63.0778 57.7962C61.3743 56.1709 60.4173 53.9665 60.4173 51.668C60.4173 49.3694 61.3743 47.165 63.0778 45.5397C64.7812 43.9144 67.0916 43.0013 69.5006 43.0013Z" fill="#FFC700"/>
</g>
<defs>
<clipPath id="clip0_238_2">
<rect width="109" height="104" fill="white" transform="translate(15 17)"/>
</clipPath>
</defs>
</svg>
